PathFileType	4	(X/Y/Z)	s07c0203.trc
DataRate	CameraRate	NumFrames	NumMarkers	Units	OrigDataRate	OrigDataStartFrame	OrigNumFrames
200	200	7	48	mm	200	1500	2000
Frame#	Time	racr			lacr			c7			jug			rlel			rdr			llel			ldr			s2			lic			ric			lasi			rasi			rpsi			lpsi			rgt			lgt			rth1			rth2			rth3			rth4			rlfc			rmfc			rsh1			rsh2			rsh3			rsh4			rlmal			rcal			rtoe			rmt5			lth1			lth2			lth4			lth3			llfc			lmfc			lsh1			lsh2			lsh3			lsh4			llmal			lcal			ltoe			lmt5			SBIKE			LBIKE			RBIKE			
		X1	Y1	Z1	X2	Y2	Z2	X3	Y3	Z3	X4	Y4	Z4	X5	Y5	Z5	X6	Y6	Z6	X7	Y7	Z7	X8	Y8	Z8	X9	Y9	Z9	X10	Y10	Z10	X11	Y11	Z11	X12	Y12	Z12	X13	Y13	Z13	X14	Y14	Z14	X15	Y15	Z15	X16	Y16	Z16	X17	Y17	Z17	X18	Y18	Z18	X19	Y19	Z19	X20	Y20	Z20	X21	Y21	Z21	X22	Y22	Z22	X23	Y23	Z23	X24	Y24	Z24	X25	Y25	Z25	X26	Y26	Z26	X27	Y27	Z27	X28	Y28	Z28	X29	Y29	Z29	X30	Y30	Z30	X31	Y31	Z31	X32	Y32	Z32	X33	Y33	Z33	X34	Y34	Z34	X35	Y35	Z35	X36	Y36	Z36	X37	Y37	Z37	X38	Y38	Z38	X39	Y39	Z39	X40	Y40	Z40	X41	Y41	Z41	X42	Y42	Z42	X43	Y43	Z43	X44	Y44	Z44	X45	Y45	Z45	X46	Y46	Z46	X47	Y47	Z47	X48	Y48	Z48	
1500	7.5000	533.686877	1379.768552	-80.942213	541.107883	1360.417891	-351.278058	508.173461	1420.175171	-221.351433	467.172663	1273.353611	-225.594717	492.122977	1091.232582	119.629270	694.271529	951.525207	-41.734575	500.488572	1117.161938	-599.229272	688.843450	940.746209	-459.703034	-78.620671	1207.193755	-255.840602	90.000302	1257.374944	-381.995882	76.923525	1246.433904	-90.858858	117.230579	1184.238533	-354.104816	95.144929	1188.455859	-106.775295	-54.277900	1247.267978	-201.242000	-36.981491	1256.599901	-306.257973	13.041280	1108.391591	-58.938571	44.211808	1119.658222	-427.945004	105.303719	960.263231	-58.297856	157.783947	890.984316	-72.965835	171.845678	806.375936	-77.494319	187.490359	906.113407	-90.070023	221.324320	685.286508	-110.619331	194.248845	666.611992	-208.741181	190.159315	546.482905	-75.234893	195.948189	458.873189	-93.276565	162.439128	378.772727	-84.141720	206.413488	460.059775	-132.425315	136.884637	236.438496	-78.776518	79.921592	179.106478	-104.263709	365.008833	233.337863	-128.969277	300.788508	180.664879	-56.700818	142.079379	1056.343499	-427.306507	229.629998	1046.594492	-426.158417	243.082484	1079.104266	-415.186152	301.868444	993.662463	-423.658241	453.148544	889.943070	-383.375436	438.046400	873.152136	-286.325673	342.818083	788.075311	-403.434379	295.329903	717.557698	-389.532584	215.165191	677.047501	-395.949414	301.147389	715.409691	-347.828561	113.027990	595.789799	-399.963211	44.180171	632.677996	-361.685191	176.229456	374.472028	-360.745702	115.039229	431.727740	-422.921648	-260.699794	963.299397	-236.801842	-82.793704	79.380383	-436.646534	-82.779696	79.157366	-39.073102	
1501	7.5050	535.288674	1377.767172	-83.300457	538.529313	1362.764761	-353.613399	508.248851	1420.772902	-223.266906	465.330837	1274.561032	-229.142704	493.151751	1091.563409	120.395203	694.145588	951.600178	-41.541511	498.219999	1115.868517	-597.807890	688.480309	940.408731	-458.921721	-77.676869	1207.274456	-253.213575	88.861440	1259.703879	-379.818362	79.516312	1244.625068	-88.873957	117.002162	1186.074079	-352.825284	97.292857	1186.721828	-105.495504	-52.220502	1247.192294	-198.640864	-36.877823	1257.632204	-302.983508	14.409890	1106.780997	-57.939804	44.868880	1122.495841	-427.220397	103.461515	957.115787	-56.601048	154.535828	886.824666	-70.948500	166.748337	802.011801	-75.293850	184.504107	901.194699	-88.314035	214.144768	679.954729	-108.824892	187.713085	660.910194	-206.591674	182.493596	541.446509	-73.831445	188.511990	453.875097	-92.039199	154.682734	373.787652	-83.321793	198.992817	454.990631	-131.188610	128.753214	231.605773	-78.710752	71.274923	174.803923	-104.233202	356.842287	225.866429	-129.061590	292.493164	174.243093	-56.348201	143.969930	1061.413699	-426.713886	231.915271	1053.475428	-425.263080	244.431966	1086.234224	-414.204714	305.112076	1002.189622	-423.140601	458.493056	900.924918	-382.884827	443.585463	883.432536	-285.493031	349.468870	798.020878	-403.581345	302.419558	727.177867	-389.521148	222.446158	686.189267	-396.025304	308.030002	724.849850	-348.022359	120.579149	603.176754	-400.272140	50.128959	636.023333	-355.644697	185.831184	382.643202	-360.948965	124.280291	438.961762	-422.334710	-260.640020	963.385394	-236.592421	-82.760960	79.540196	-436.651134	-82.767825	79.188816	-39.039089	
1502	7.5100	536.822450	1375.855877	-85.745416	536.488028	1365.320557	-356.953152	508.141965	1421.373478	-225.338984	464.433680	1275.480843	-232.963085	494.143973	1092.060392	121.015066	694.078719	951.717678	-41.368187	495.907886	1114.667656	-596.223280	688.325456	940.261128	-458.350532	-76.807291	1207.234590	-250.779912	88.132042	1262.016466	-379.057633	82.062425	1242.524875	-86.948180	117.008387	1187.828912	-351.992082	99.479828	1184.949089	-104.241550	-50.339267	1246.562118	-195.798201	-36.614721	1258.397281	-300.240517	15.683639	1105.147700	-56.990279	45.527219	1125.088221	-426.532818	101.689817	954.342055	-54.948088	151.506377	882.968594	-68.852120	162.174835	797.944992	-72.690298	181.592425	896.876724	-86.265916	207.452520	675.063072	-106.827243	181.524319	656.400884	-204.844506	175.008521	537.162367	-72.237403	180.942829	449.251067	-90.948832	146.751320	369.181360	-82.597483	191.712808	450.370715	-129.997121	120.323090	227.156673	-78.555484	62.502441	171.217449	-103.966889	348.831532	219.176272	-128.211247	283.588579	167.929462	-56.077107	145.777972	1066.539385	-426.570631	233.745859	1060.358347	-424.796230	245.351375	1092.950331	-412.758055	307.971912	1010.353289	-422.687489	459.732547	913.891455	-387.971442	448.781613	893.693553	-284.879819	356.003124	807.531165	-403.436183	309.316946	736.546230	-389.655234	229.448250	695.089642	-396.088460	314.808002	734.079232	-347.947174	127.482304	610.274742	-400.472936	56.252748	641.826693	-355.655439	196.288869	391.477283	-362.418495	133.427619	445.854691	-422.394844	-260.526759	963.444697	-236.508556	-82.745307	79.626476	-436.638910	-82.751682	79.194715	-39.001155	
1503	7.5150	538.438343	1373.953894	-88.384057	534.294541	1367.961060	-360.515743	508.092797	1421.831662	-227.416777	463.612432	1276.269795	-236.647803	495.184949	1092.730869	121.477923	694.118881	951.909368	-41.179267	493.538799	1113.345084	-594.392758	688.435491	940.323390	-458.183482	-76.057122	1207.064234	-248.469261	86.697684	1264.145565	-377.484939	84.984008	1240.111915	-85.345195	116.895979	1189.434529	-350.855295	101.552959	1183.193324	-103.097900	-49.261558	1245.459586	-193.245774	-36.407261	1258.676557	-297.431905	16.786253	1103.530539	-56.026053	46.052500	1127.432752	-425.849974	100.010147	951.807910	-53.292785	148.677050	879.510184	-66.624539	157.957557	794.236325	-69.890659	178.982168	892.690629	-84.490552	201.288591	670.628499	-104.892090	176.957714	651.811451	-202.590238	168.118138	532.829661	-70.887872	173.501210	445.084467	-89.756597	138.833299	365.161902	-81.862778	184.637649	446.178435	-128.701633	111.542304	223.159891	-78.452397	53.291511	167.992609	-103.796054	340.112024	213.049055	-127.875799	274.221705	162.308778	-55.790806	147.121925	1070.968431	-426.019073	235.226648	1066.601433	-424.175478	246.163287	1099.295937	-411.695448	310.448254	1018.107484	-422.350099	463.760017	922.641938	-387.651542	453.707677	902.834835	-284.616149	362.306480	816.731731	-403.762415	315.510181	745.440920	-389.515918	235.774584	703.621944	-396.518493	322.023151	742.379746	-347.838496	133.704428	616.853286	-400.615449	62.552978	649.786565	-361.526128	206.733748	398.355360	-361.571532	142.757626	452.134073	-422.595794	-260.418439	963.493443	-236.424305	-82.729564	79.684397	-436.618226	-82.733196	79.223697	-38.985942	
1504	7.5200	540.108586	1372.009962	-91.215517	531.904950	1370.572949	-364.021771	507.955448	1422.160962	-229.332176	462.839846	1276.907584	-240.139291	496.111138	1093.415696	121.725799	694.263412	952.234757	-41.017992	490.887969	1112.128668	-592.764086	688.813314	940.635942	-458.301521	-75.442936	1206.667578	-246.218330	85.639525	1266.194984	-375.761035	87.643499	1237.766803	-83.645918	116.521228	1190.819942	-349.606477	103.567119	1181.121846	-101.847287	-48.779204	1245.043538	-190.130192	-36.265250	1259.083980	-295.316413	17.839972	1101.854194	-55.121403	46.476937	1129.573287	-425.156382	98.529913	949.357777	-51.634562	146.156192	876.218255	-64.411496	154.074569	790.834887	-67.013215	176.515939	889.070104	-81.967686	195.784426	666.520945	-103.037852	172.405756	648.149100	-200.907252	161.573260	529.018764	-69.758337	166.383367	441.302746	-88.765554	130.865540	361.726782	-81.123159	177.690500	442.349485	-127.650777	102.456930	219.962628	-78.294949	43.911388	165.477705	-102.817113	331.152143	207.409281	-127.601870	265.185391	157.645566	-55.492221	148.097055	1075.170512	-425.347788	236.317499	1072.312421	-423.406048	246.594510	1105.188085	-410.555420	312.506420	1025.614007	-422.905604	470.894455	931.812261	-382.390327	457.700605	912.490104	-283.513288	367.791549	825.393597	-403.503441	321.642176	753.926676	-389.660010	241.970848	711.592668	-396.559596	327.890707	750.415246	-347.964058	139.943314	622.629021	-400.796412	68.224604	653.818145	-361.468190	217.228915	404.848747	-360.861820	152.420281	457.890370	-422.791997	-260.449511	963.532335	-235.973086	-82.725445	79.729556	-436.595788	-82.719692	79.216316	-39.002465	
1505	7.5250	541.781103	1370.238511	-94.257052	529.384867	1373.057047	-367.489050	507.969920	1422.169118	-231.541102	462.156983	1277.223788	-243.438788	497.211409	1094.070599	121.503462	694.485902	952.567858	-40.749704	487.937065	1110.753808	-591.122753	689.374008	941.180696	-458.638959	-75.088804	1206.280325	-243.979347	84.402353	1267.944403	-373.835040	90.133275	1235.154140	-81.931601	116.059042	1192.107479	-348.651099	105.314684	1179.217959	-100.745709	-48.485349	1244.638895	-186.849022	-36.504586	1259.201838	-292.499751	18.920434	1100.074683	-54.218488	46.642921	1131.568002	-424.395729	97.261832	947.041527	-50.047096	143.967906	873.224189	-62.221990	150.653480	787.694516	-64.312506	174.513389	885.437583	-79.891861	190.983523	662.870098	-101.444358	168.100662	645.338989	-199.913984	155.568045	525.889203	-68.622493	159.475859	438.055634	-87.805204	123.098447	358.894531	-80.402674	170.744931	439.045688	-126.251124	93.313522	217.335242	-78.175298	34.207774	163.873735	-102.491711	321.912739	202.543932	-127.380747	254.662582	152.437941	-55.576869	148.702558	1079.001693	-424.681763	236.943987	1077.794988	-422.935226	246.695394	1110.510885	-409.465981	313.849420	1032.533673	-422.857514	471.401670	942.113449	-385.289291	461.361732	920.620228	-282.952718	372.683474	833.478489	-403.189946	327.040723	761.508828	-389.573755	247.798862	718.515222	-396.626625	333.538225	757.874621	-348.017072	146.339084	627.606797	-400.926600	74.011715	657.356685	-362.242101	228.083783	411.096958	-360.691129	162.338560	462.981389	-422.808978	-260.407945	963.569941	-235.898329	-82.725240	79.728215	-436.606401	-82.729279	79.211693	-38.972351	
1506	7.5300	543.531864	1368.329261	-97.481548	526.852414	1375.344318	-370.640943	508.006471	1421.832516	-233.753146	461.724905	1277.124407	-246.633232	498.166071	1094.929281	121.347243	694.872442	953.007745	-40.502406	485.000409	1109.622820	-589.434501	690.040545	941.824054	-459.238215	-74.901066	1205.919656	-241.656882	83.090585	1269.494375	-371.808706	92.521083	1232.515836	-80.402877	115.303898	1193.198724	-347.560313	107.055869	1177.277455	-99.631431	-47.443514	1243.340647	-184.349658	-37.102717	1259.592145	-289.856827	19.895202	1098.223706	-53.259475	46.550398	1133.432121	-423.583731	96.183417	944.914343	-48.535560	142.095718	870.434613	-60.079623	147.834689	784.728684	-61.940701	172.825048	882.074657	-77.686368	187.135771	659.534616	-100.282719	164.869722	642.881001	-198.931971	150.211940	523.338156	-67.798749	152.940752	435.446951	-87.057301	115.552137	356.761606	-79.982551	164.351259	436.224846	-125.472452	84.101495	215.472965	-78.167945	23.993176	161.707547	-103.929854	312.603978	197.921557	-127.175720	244.928301	148.935878	-55.395306	148.891295	1082.478811	-423.602458	237.216185	1082.539263	-422.046435	246.454837	1115.258849	-408.167595	314.801931	1038.443564	-422.317197	473.850053	950.515581	-384.293697	464.099913	928.648520	-281.883121	377.059333	840.700093	-402.685981	332.092863	768.166477	-389.364686	253.704337	724.374699	-396.363522	338.343237	764.563480	-347.830576	152.937910	631.643373	-401.091378	79.852139	659.793120	-362.429734	239.003327	416.989684	-361.042871	172.394197	467.206114	-422.769574	-260.472593	963.668772	-235.958471	-82.720084	79.697515	-436.611738	-82.733435	79.181360	-38.990746	
